<?xml version="1.0" encoding="utf-8"?>
<!-- Generator: Adobe Illustrator 18.1.1, SVG Export Plug-In . SVG Version: 6.00 Build 0)  -->
<!DOCTYPE svg PUBLIC "-//W3C//DTD SVG 1.1//EN" "http://www.w3.org/Graphics/SVG/1.1/DTD/svg11.dtd">
<svg
	 viewBox="0 0 50 50" enable-background="new 0 0 50 50" xml:space="preserve">
	<path fill="none" stroke="#007ded" stroke-width="2" stroke-linejoin="round" stroke-miterlimit="10" d="M10.1,4.7c0,0,2.8-1.2,6.3,2.8s3,6.5,3,6.5
		l-3,3c0,0-5.8-0.1-1.2,5.8s6.3,8.1,10.6,12.3c4.3,4.2,3.7-1.6,3.7-1.6s3-3.1,3-3.1c0,0,2.3-1.4,6.6,3.1s2.7,6.2,2.7,6.2l-3.1,3.5
		c0,0-1.3-0.9-3.3,0.6c-2,1.4-7.1,1.6-11.7-2.2C19.1,37.7,7,22.1,5.4,19.3s-1.6-5.4,0.3-6.9s1.4-4.7,1.4-4.7L10.1,4.7z"/>
			<line fill="none" stroke="#007ded" stroke-width="2" stroke-linecap="round" stroke-linejoin="round" stroke-miterlimit="10" x1="35" y1="6" x2="35" y2="14"/>
		
			<line fill="none" stroke="#007ded" stroke-width="2" stroke-linecap="round" stroke-linejoin="round" stroke-miterlimit="10" x1="27.4" y1="11.5" x2="35" y2="14"/>
		
			<line fill="none" stroke="#007ded" stroke-width="2" stroke-linecap="round" stroke-linejoin="round" stroke-miterlimit="10" x1="30.3" y1="20.5" x2="35" y2="14"/>
		
			<line fill="none" stroke="#007ded" stroke-width="2" stroke-linecap="round" stroke-linejoin="round" stroke-miterlimit="10" x1="39.7" y1="20.5" x2="35" y2="14"/>
		
			<line fill="none" stroke="#007ded" stroke-width="2" stroke-linecap="round" stroke-linejoin="round" stroke-miterlimit="10" x1="42.6" y1="11.5" x2="35" y2="14"/>
</svg>
